<svg width="57" height="57" viewBox="0 0 57 57" fill="none" xmlns="http://www.w3.org/2000/svg">
<path d="M28.7 20.7C23.7401 20.7 19.7 24.7401 19.7 29.7C19.7 34.6599 23.7401 38.7 28.7 38.7C30.8569 38.7 32.8377 37.9341 34.3901 36.6627L39.7637 42.0363C39.8466 42.1227 39.9459 42.1917 40.0559 42.2392C40.1658 42.2867 40.2841 42.3118 40.4038 42.313C40.5235 42.3142 40.6423 42.2915 40.7532 42.2463C40.864 42.201 40.9648 42.1341 41.0494 42.0494C41.1341 41.9648 41.201 41.864 41.2463 41.7532C41.2915 41.6423 41.3142 41.5235 41.313 41.4038C41.3118 41.2841 41.2867 41.1658 41.2392 41.0559C41.1917 40.9459 41.1227 40.8466 41.0363 40.7637L35.6627 35.3901C36.9341 33.8377 37.7 31.8569 37.7 29.7C37.7 24.7401 33.6599 20.7 28.7 20.7ZM28.7 22.5C32.6871 22.5 35.9 25.7129 35.9 29.7C35.9 33.6871 32.6871 36.9 28.7 36.9C24.7129 36.9 21.5 33.6871 21.5 29.7C21.5 25.7129 24.7129 22.5 28.7 22.5Z" fill="white"/>
<g clip-path="url(#clip0_2_41)">
<path d="M2.49609 28.3626C3.9369 26.4776 5.92823 25.0354 8.1559 24.251C8.24808 18.8567 12.6648 14.4966 18.0806 14.4966C18.9287 14.4966 19.7742 14.6072 20.6018 14.8259C21.9491 13.1475 23.6489 11.7516 25.5494 10.7672C27.7361 9.63468 30.1006 9.06045 32.5772 9.06045C40.8939 9.06045 47.6884 15.7041 47.9328 23.9627C53.2276 25.3628 57 30.2088 57 35.7483C57 42.4706 51.531 47.9396 44.8087 47.9396L12.1914 47.9396C5.46899 47.9396 8.93891e-07 42.4706 1.48158e-06 35.7482C1.71721e-06 33.0529 0.863237 30.499 2.49609 28.3626ZM12.1914 46.208L44.8087 46.208C50.5761 46.208 55.2683 41.5158 55.2683 35.7484C55.2683 30.7888 51.7451 26.4776 46.8911 25.4974L46.185 25.3548L46.1968 24.6345C46.1977 24.5827 46.2008 24.5317 46.2045 24.4808C46.2058 24.4616 46.208 24.4426 46.208 24.423C46.208 16.907 40.0933 10.7923 32.5774 10.7923C28.2206 10.7923 24.2272 12.8142 21.6215 16.3395L21.2486 16.8438L20.6533 16.6469C19.8136 16.3693 18.948 16.2284 18.0807 16.2284C13.5622 16.2284 9.88628 19.9044 9.88627 24.423C9.88627 24.4948 9.89184 24.5768 9.89774 24.6639C9.90153 24.7201 9.9052 24.7764 9.90809 24.8329L9.94182 25.517L9.28377 25.7072C7.14949 26.3244 5.22753 27.6409 3.87211 29.4141C2.47193 31.2458 1.73194 33.4361 1.73194 35.7481C1.73171 41.5157 6.42397 46.208 12.1914 46.208Z" fill="white"/>
<path d="M41.9017 21.531L40.17 21.531C40.17 18.563 37.7553 16.1483 34.7871 16.1483L34.7871 14.4166C38.71 14.4165 41.9017 17.608 41.9017 21.531Z" fill="white"/>
</g>
<defs>
<clipPath id="clip0_2_41">
<rect width="57" height="57" fill="white" transform="matrix(-1 -8.74228e-08 -8.74228e-08 1 57 0)"/>
</clipPath>
</defs>
</svg>
